# xmcd
#
# Track frame offsets: 
#        150
#        14637
#        27980
#        38876
#        63533
#        79887
#        91127
#        104724
#        113846
#        123511
#        134998
#        147312
#        163344
#        177415
#        188514
#        201012
#        214701
#        227123
#        241637
#        255761
#        274128
#
# Disc length: 3850 seconds
#
# Revision: 0
# Processed by: cddbd v1.5.2PL0 Copyright (c) Steve Scherf et al.
# Submitted via: ExactAudioCopy v0.95b2
#
DISCID=330f0815
DTITLE=Bob Dylan - Self Portrait
DYEAR=1970
DGENRE=Country
TTITLE0=All The Tired Horses
TTITLE1=Alberta # 1
TTITLE2=I Forgot More Than You'll Ever Know
TTITLE3=Days Of '49
TTITLE4=Early Mornin' Rain
TTITLE5=In Search Of Little Sadie
TTITLE6=Let It Be Me
TTITLE7=Little Sadie
TTITLE8=Woogie Boogie
TTITLE9=Belle Isle
TTITLE10=Living The Blues
TTITLE11=Copper Kettle
TTITLE12=Gotta Travel On
TTITLE13=Blue Moon
TTITLE14=The Boxer
TTITLE15=Take Me As I Am
TTITLE16=Take A Message To Mary
TTITLE17=It Hurts Mee Too
TTITLE18=Wigwam
TTITLE19=Thirty Boots
TTITLE20=Alberta # 2
EXTD=
EXTT0=
EXTT1=
EXTT2=
EXTT3=
EXTT4=
EXTT5=
EXTT6=
EXTT7=
EXTT8=
EXTT9=
EXTT10=
EXTT11=
EXTT12=
EXTT13=
EXTT14=
EXTT15=
EXTT16=
EXTT17=
EXTT18=
EXTT19=
EXTT20=
PLAYORDER=
